<?xml version="1.0" encoding="UTF-8" standalone="no"?>
<!-- Created with Inkscape (http://www.inkscape.org/) -->

<svg
   xmlns:dc="http://purl.org/dc/elements/1.1/"
   xmlns:cc="http://creativecommons.org/ns#"
   xmlns:rdf="http://www.w3.org/1999/02/22-rdf-syntax-ns#"
   xmlns:svg="http://www.w3.org/2000/svg"
   xmlns="http://www.w3.org/2000/svg"
   xmlns:sodipodi="http://sodipodi.sourceforge.net/DTD/sodipodi-0.dtd"
   xmlns:inkscape="http://www.inkscape.org/namespaces/inkscape"
   width="16px"
   height="16px"
   id="svg2816"
   version="1.1"
   inkscape:version="0.47 r22583"
   sodipodi:docname="delayed.svg">
  <defs
     id="defs2818">
    <inkscape:perspective
       sodipodi:type="inkscape:persp3d"
       inkscape:vp_x="0 : 8 : 1"
       inkscape:vp_y="0 : 1000 : 0"
       inkscape:vp_z="16 : 8 : 1"
       inkscape:persp3d-origin="8 : 5.3333333 : 1"
       id="perspective2824" />
    <inkscape:perspective
       id="perspective4036"
       inkscape:persp3d-origin="331.5 : 238.66667 : 1"
       inkscape:vp_z="663 : 358 : 1"
       inkscape:vp_y="0 : 1000 : 0"
       inkscape:vp_x="0 : 358 : 1"
       sodipodi:type="inkscape:persp3d" />
  </defs>
  <sodipodi:namedview
     id="base"
     pagecolor="#ffffff"
     bordercolor="#666666"
     borderopacity="1.0"
     inkscape:pageopacity="0.0"
     inkscape:pageshadow="2"
     inkscape:zoom="7.8481082"
     inkscape:cx="8"
     inkscape:cy="8"
     inkscape:current-layer="layer1"
     showgrid="true"
     inkscape:grid-bbox="true"
     inkscape:document-units="px"
     inkscape:window-width="1280"
     inkscape:window-height="921"
     inkscape:window-x="0"
     inkscape:window-y="25"
     inkscape:window-maximized="1" />
  <metadata
     id="metadata2821">
    <rdf:RDF>
      <cc:Work
         rdf:about="">
        <dc:format>image/svg+xml</dc:format>
        <dc:type
           rdf:resource="http://purl.org/dc/dcmitype/StillImage" />
        <dc:title></dc:title>
      </cc:Work>
    </rdf:RDF>
  </metadata>
  <g
     id="layer1"
     inkscape:label="Layer 1"
     inkscape:groupmode="layer">
    <g
       transform="matrix(0.02865014,0,0,0.02865014,-1.4110247,-2.4359545)"
       id="g4607">
      <path
         style="fill:#000000;fill-opacity:1;fill-rule:evenodd;stroke:none"
         d="m 131.875,326.46875 c -8.83562,-0.11646 -17.27329,3.66791 -23.0625,10.34375 -9.682833,10.85578 -18.100021,22.86534 -25.03125,35.8125 -13.862466,25.89432 -21.750001,55.57915 -21.75,86.875 -2e-6,101.48162 82.95589,184.43752 184.4375,184.4375 50.74079,-2e-5 97.06187,-20.68689 130.40625,-54.03125 16.67216,-16.67218 30.15361,-36.53971 39.5,-58.625 4.45919,-9.92148 3.19917,-21.47938 -3.29309,-30.20696 -6.49227,-8.72758 -17.19978,-13.25768 -27.98445,-11.83957 -10.78468,1.4181 -19.9571,8.56227 -23.97246,18.67153 -6.29035,14.86393 -15.40654,28.28153 -26.6875,39.5625 -22.5619,22.5619 -53.45965,36.46874 -87.96875,36.46875 -69.01817,2e-5 -124.4375,-55.41931 -124.4375,-124.4375 0,-21.27907 5.27957,-41.10575 14.625,-58.5625 4.67271,-8.72838 10.38578,-16.84213 16.9375,-24.1875 7.99587,-8.71719 10.12354,-21.31885 5.43297,-32.17803 -4.69057,-10.85918 -15.32381,-17.94882 -27.15172,-18.10322 l 0,0 z"
         id="path2768" />
      <path
         style="fill:#000000;fill-opacity:1;fill-rule:evenodd;stroke:none"
         d="m 194.93814,87.623505 c -34.09995,0 -61.78124,27.681295 -61.78125,61.781245 -0.0141,3.15049 0.26941,6.29116 0.71875,9.40625 0.004,0.0204 -0.004,0.0421 0,0.0625 l 37.25,229.65625 c 2.35026,14.45506 14.79287,25.10129 29.4375,25.1875 l 195.25,1.21875 67.46875,156.59375 c 6.26437,14.506 22.70562,21.66744 37.59375,16.375 l 79.25,-28.1875 c 15.61067,-5.55736 23.77611,-22.73307 18.21875,-38.34375 -5.55736,-15.61068 -22.73308,-23.74487 -38.34375,-18.1875 l -52.75,18.78125 -64.0625,-148.78125 c -4.71671,-10.94123 -15.4606,-18.05476 -27.375,-18.125 l -189.5,-1.1875 -2.9375,-18.03125 134.03125,0 c 10.81906,0.15301 20.88956,-5.53007 26.34375,-14.875 5.45419,-9.34492 5.45419,-20.90508 0,-30.25 -5.45419,-9.34493 -15.52467,-15.02801 -26.34375,-14.875 l -143.75,0 -10.59375,-65.21875 c 30.26248,-3.98374 53.62501,-29.87432 53.625,-61.21875 0,-34.09995 -27.65004,-61.781246 -61.75,-61.781245 z"
         id="path1879"
         sodipodi:nodetypes="ccccccccccscccccccsscccsc" />
    </g>
  </g>
</svg>
