<?xml version="1.0" encoding="UTF-8" standalone="no"?>
<!-- Created with Inkscape (http://www.inkscape.org/) -->

<svg
   xmlns:dc="http://purl.org/dc/elements/1.1/"
   xmlns:cc="http://creativecommons.org/ns#"
   xmlns:rdf="http://www.w3.org/1999/02/22-rdf-syntax-ns#"
   xmlns:svg="http://www.w3.org/2000/svg"
   xmlns="http://www.w3.org/2000/svg"
   xmlns:sodipodi="http://sodipodi.sourceforge.net/DTD/sodipodi-0.dtd"
   xmlns:inkscape="http://www.inkscape.org/namespaces/inkscape"
   width="16px"
   height="16px"
   id="svg2816"
   version="1.1"
   inkscape:version="0.47 r22583"
   inkscape:export-filename="/home/matthewc/Documents/Dropbox/programming/transit-appliance/transit-appliance-js-api/trunk/assets/img/flags/bike.png"
   inkscape:export-xdpi="90"
   inkscape:export-ydpi="90"
   sodipodi:docname="New document 2">
  <defs
     id="defs2818">
    <inkscape:perspective
       sodipodi:type="inkscape:persp3d"
       inkscape:vp_x="0 : 8 : 1"
       inkscape:vp_y="0 : 1000 : 0"
       inkscape:vp_z="16 : 8 : 1"
       inkscape:persp3d-origin="8 : 5.3333333 : 1"
       id="perspective2824" />
    <inkscape:perspective
       sodipodi:type="inkscape:persp3d"
       inkscape:vp_x="0 : 225.5 : 1"
       inkscape:vp_y="0 : 1000 : 0"
       inkscape:vp_z="301 : 225.5 : 1"
       inkscape:persp3d-origin="150.5 : 150.33333 : 1"
       id="perspective2486" />
    <inkscape:perspective
       id="perspective13"
       inkscape:persp3d-origin="300.5 : 250.33333 : 1"
       inkscape:vp_z="601 : 375.5 : 1"
       inkscape:vp_y="0 : 1000 : 0"
       inkscape:vp_x="0 : 375.5 : 1"
       sodipodi:type="inkscape:persp3d" />
  </defs>
  <sodipodi:namedview
     id="base"
     pagecolor="#ffffff"
     bordercolor="#666666"
     borderopacity="1.0"
     inkscape:pageopacity="0.0"
     inkscape:pageshadow="2"
     inkscape:zoom="47.0625"
     inkscape:cx="8"
     inkscape:cy="7.8287499"
     inkscape:current-layer="layer1"
     showgrid="true"
     inkscape:grid-bbox="true"
     inkscape:document-units="px"
     inkscape:window-width="856"
     inkscape:window-height="867"
     inkscape:window-x="1280"
     inkscape:window-y="24"
     inkscape:window-maximized="0" />
  <metadata
     id="metadata2821">
    <rdf:RDF>
      <cc:Work
         rdf:about="">
        <dc:format>image/svg+xml</dc:format>
        <dc:type
           rdf:resource="http://purl.org/dc/dcmitype/StillImage" />
        <dc:title></dc:title>
      </cc:Work>
    </rdf:RDF>
  </metadata>
  <g
     id="layer1"
     inkscape:label="Layer 1"
     inkscape:groupmode="layer">
    <path
       id="path5490"
       d="M 5.5686571,10.322543 3.466901,9.9467288 4.7915039,8.0615838 c 0.6866156,0.655906 0.7720162,1.4432443 0.7771532,2.2609592 z m 0.5781724,0.137928 c 0.00339,-0.0817 0.015362,-0.213086 0.015362,-0.305074 0,-0.9328422 -0.2754286,-1.8393605 -1.0229637,-2.5927516 L 5.91775,6.5413657 7.1227716,10.568975 6.1468295,10.460471 z m 4.6251345,-4.0084617 -0.0668,-0.2241339 -4.2919868,-0.00615 1.2318514,4.1299616 c 0.061256,0.01911 2.1908502,-2.7470947 3.1269334,-3.8996777 z M 12.67285,10.094782 C 12.096479,9.593188 11.647847,9.1151561 11.324318,8.1584871 10.813687,8.6659988 10.522345,9.400061 10.522345,10.155397 c 0,1.499996 1.116716,2.72345 2.485868,2.72345 1.369129,0 2.485798,-1.223454 2.485798,-2.72345 0,-1.5000485 -1.116669,-2.7234762 -2.485798,-2.7234762 -0.436965,0 -0.883652,0.1382713 -1.243835,0.3712122 0.243819,0.8440372 0.480963,1.2793617 1.231114,1.9409748 0.182107,0.00842 0.320554,0.168593 0.320554,0.3596432 0,0.198123 -0.147448,0.359666 -0.328235,0.359666 -0.18081,0 -0.314961,-0.161543 -0.314961,-0.368635 z m -7.1922579,0.806429 c -0.2811418,1.147876 -1.2813274,1.977714 -2.3883229,1.977714 -1.3691511,0 -2.48589211,-1.223453 -2.48589211,-2.723528 0,-1.5000485 1.11674101,-2.7235542 2.48589211,-2.7235542 0.43699,0 0.9425789,0.1130252 1.3114499,0.3495962 L 3.0544654,9.7441078 c -0.1650166,0.00285 -0.3086955,0.1643838 -0.3086955,0.3596432 0,0.198123 0.1475194,0.359666 0.3282818,0.359666 0.050046,0 0.1025869,-0.01404 0.146968,-0.03695 l 2.2595724,0.474744 z m 6.1063129,-3.7284759 -0.88058,-2.6615458 0.279029,-0.5215539 -0.55806,-0.6653203 -1.1981569,0 -0.016442,0.3776298 1.0504699,0 0.213382,0.2517423 -0.246192,0.4855269 0.309583,1.2022059 -4.3000257,0 -0.06567,-0.219872 C 6.5198291,5.3722681 7.1158832,5.1389847 7.2582427,5.0035533 7.4006013,4.868044 7.2759565,4.7434469 7.113795,4.7376084 6.2650905,4.6981107 5.0042138,4.6202173 4.7646695,4.6190882 4.525195,4.6178739 4.5006415,4.7498636 4.660979,4.9420173 4.8213155,5.1341457 4.9614657,5.3071545 5.5689222,5.4102661 L 5.7330269,5.8957929 4.7155358,7.2768715 C 4.2359189,6.9578607 3.655873,6.7918983 3.0922692,6.7918983 c -1.6908812,0 -3.06996942,1.510936 -3.06996942,3.3634987 0,1.852538 1.37908822,3.363446 3.06996942,3.363446 1.3910668,0 2.6142591,-1.051048 2.9737204,-2.503736 l 0.9349942,0.184082 c 0.040036,0.120757 0.268458,0.325999 0.4925251,0.308376 l 0.067741,-0.0041 c 0.3025034,-0.0542 0.4609931,-0.337893 0.3709115,-0.619458 l 3.0543444,-3.7846758 0.136742,0.406082 c -0.741294,0.6397081 -1.185004,1.6251184 -1.185004,2.6499488 0,1.852538 1.379088,3.363446 3.069969,3.363446 1.690858,0 3.069947,-1.510908 3.069947,-3.363446 0,-1.8525627 -1.379089,-3.3634987 -3.069947,-3.3634987 -0.491691,0 -0.99536,0.1314605 -1.421308,0.3808368 z"
       clip-rule="evenodd"
       style="fill:#000000;fill-opacity:1;fill-rule:evenodd"
       sodipodi:nodetypes="cccccscccccccccccssssccssccsssccssccccccccccccccsssscccssscccccccssssc" />
  </g>
</svg>
